<svg width="117" height="117" xmlns="http://www.w3.org/2000/svg">

 <g>
  <title>background</title>
  <rect fill="none" id="canvas_background" height="119" width="119" y="-1" x="-1"/>
 </g>
 <g>
  <title>Layer 1</title>
  <g stroke="null" id="svg_1">
   <g stroke="null" id="lab_1_">
    <path stroke="null" id="svg_2" fill="#ffffff" d="m81.571527,12.839791c-1.359889,-1.357014 -3.159657,-2.104521 -5.083051,-2.104521s-3.723163,0.747508 -5.088802,2.107396l-4.053791,4.059541c-1.359889,1.357014 -2.110271,3.162532 -2.110271,5.085926c0,1.354139 0.370879,2.650777 1.066636,3.774913l-39.031395,15.637283c-2.610526,1.147137 -4.48217,3.501785 -5.008301,6.293439c-0.53188,2.808903 0.359379,5.689683 2.397774,7.725203l36.57037,36.167866c1.575516,1.575516 3.668537,2.46965 5.879435,2.521401c0.048875,0.002875 0.172502,0.002875 0.221377,0.002875c0.580756,0 1.170137,-0.060376 1.753768,-0.178252c2.857779,-0.592256 5.198053,-2.567401 6.258938,-5.255553l15.358405,-38.456389c1.155762,0.761883 2.51565,1.170137 3.930165,1.170137c1.92627,0 3.728913,-0.750383 5.083051,-2.107396l4.045166,-4.048041c1.371389,-1.362764 2.121771,-3.171157 2.121771,-5.097427s-0.753258,-3.737538 -2.104521,-5.083051l-22.206725,-22.21535zm-11.563367,73.701371c-0.356504,0.899884 -1.141387,1.564016 -2.090146,1.759518c-0.218502,0.046 -0.439879,0.063251 -0.658382,0.060376c-0.730257,-0.01725 -1.43464,-0.310503 -1.96077,-0.839508l-36.59337,-36.190866c-0.672757,-0.669882 -0.968885,-1.630142 -0.790633,-2.567401c0.175377,-0.931509 0.802133,-1.719267 1.673267,-2.098771l17.874056,-7.158822c12.043497,4.004916 24.089869,0.146626 36.139116,13.000882l-13.593138,34.034595zm29.707676,-45.388085l-4.065291,4.062416c-0.560631,0.563506 -1.472015,0.563506 -2.032646,0l-5.083051,-5.080176l-4.117042,10.318479l0.342128,-0.871134c-8.653838,-8.639462 -17.448552,-9.729099 -25.383632,-10.703733c-2.550151,-0.313378 -5.022676,-0.641131 -7.452075,-1.164387l24.411872,-9.777974l-4.930675,-4.930675c-0.560631,-0.560631 -0.560631,-1.472015 0,-2.032646l4.065291,-4.068166c0.560631,-0.560631 1.472015,-0.560631 2.032646,0l22.2096,22.21535c0.566381,0.560631 0.566381,1.472015 0.002875,2.032646z"/>
    <path stroke="null" id="svg_3" fill="#ffffff" d="m69.548155,62.485793c3.96179,0 7.187573,-3.222908 7.187573,-7.187573s-3.222908,-7.187573 -7.187573,-7.187573s-7.187573,3.222908 -7.187573,7.187573s3.225783,7.187573 7.187573,7.187573zm0,-11.500116c2.380524,0 4.312544,1.93202 4.312544,4.312544s-1.93202,4.312544 -4.312544,4.312544c-2.383399,0 -4.312544,-1.93202 -4.312544,-4.312544s1.929145,-4.312544 4.312544,-4.312544z"/>
    <path stroke="null" id="svg_4" fill="#ffffff" d="m106.923533,2.110182c-3.96179,0 -7.187573,3.222908 -7.187573,7.187573s3.225783,7.187573 7.187573,7.187573s7.187573,-3.222908 7.187573,-7.187573s-3.222908,-7.187573 -7.187573,-7.187573zm0,11.500116c-2.377649,0 -4.312544,-1.93202 -4.312544,-4.312544s1.934895,-4.312544 4.312544,-4.312544s4.312544,1.93202 4.312544,4.312544s-1.93202,4.312544 -4.312544,4.312544z"/>
    <path stroke="null" id="svg_5" fill="#ffffff" d="m45.110408,50.985677c0,3.171157 2.578901,5.750058 5.750058,5.750058s5.750058,-2.578901 5.750058,-5.750058s-2.578901,-5.750058 -5.750058,-5.750058s-5.750058,2.578901 -5.750058,5.750058zm5.750058,-2.875029c1.587016,0 2.875029,1.285138 2.875029,2.875029s-1.288013,2.875029 -2.875029,2.875029s-2.875029,-1.285138 -2.875029,-2.875029s1.288013,-2.875029 2.875029,-2.875029z"/>
    <circle stroke="null" id="svg_6" fill="#ffffff" r="2.875028" cy="68.235852" cx="59.485553"/>
    <circle stroke="null" id="svg_7" fill="#ffffff" r="2.875028" cy="25.110415" cx="105.486019"/>
   </g>
  </g>
  <g id="svg_8"/>
  <g id="svg_9"/>
  <g id="svg_10"/>
  <g id="svg_11"/>
  <g id="svg_12"/>
  <g id="svg_13"/>
  <g id="svg_14"/>
  <g id="svg_15"/>
  <g id="svg_16"/>
  <g id="svg_17"/>
  <g id="svg_18"/>
  <g id="svg_19"/>
  <g id="svg_20"/>
  <g id="svg_21"/>
  <g id="svg_22"/>
  <text font-weight="bold" transform="rotate(42.65192413330078 36.304687500000014,80.52343749999999) " xml:space="preserve" text-anchor="start" font-family="'Courier New', Courier, monospace" font-size="24" id="svg_23" y="86.909731" x="0.277785" stroke-width="0" stroke="#000" fill="#ffffff">CBlog</text>
 </g>
</svg>